<?xml version="1.0" standalone="no"?><!DOCTYPE svg PUBLIC "-//W3C//DTD SVG 1.1//EN" "http://www.w3.org/Graphics/SVG/1.1/DTD/svg11.dtd"><svg t="1735556537428" class="icon" viewBox="0 0 1024 1024" version="1.1" xmlns="http://www.w3.org/2000/svg" p-id="3918" data-spm-anchor-id="a313x.search_index.0.i3.7c993a81uKhJWP" xmlns:xlink="http://www.w3.org/1999/xlink" width="200" height="200"><path d="M602.251 885.76H165.203a28.738 28.738 0 0 1-20.186-8.605 28.644 28.644 0 0 1-8.189-20.377V167.331c0-16.063 12.695-28.991 28.375-28.991H756.8c15.702 0 28.321 12.928 28.321 28.991v378.33c0 20.547 16.361 37.204 36.46 37.204 20.164 0 36.438-16.657 36.438-37.204v-378.33c0-57.155-45.341-103.462-101.282-103.462H165.203c-55.943 0-101.284 46.307-101.284 103.462v689.447c0 57.133 45.341 103.451 101.284 103.451H602.25c20.184 0 36.545-16.657 36.545-37.202a36.852 36.852 0 0 0-10.539-26.219 36.844 36.844 0 0 0-26.005-11.048zM261.122 340.247c29.086 0 52.66-23.573 52.66-52.66 0-29.087-23.573-52.66-52.66-52.66-29.087 0-52.66 23.573-52.66 52.66 0 29.086 23.574 52.66 52.66 52.66z m199.89 0c29.076 0 52.66-23.573 52.66-52.66 0-29.087-23.584-52.66-52.66-52.66-29.087 0-52.671 23.573-52.671 52.66 0 29.086 23.585 52.66 52.671 52.66z m199.88 0c29.087 0 52.671-23.573 52.671-52.66 0-29.087-23.584-52.66-52.671-52.66s-52.649 23.573-52.649 52.66c-0.001 29.086 23.562 52.66 52.649 52.66zM245.653 477.693h411.731c20.569 0 37.248 16.668 37.248 37.224 0 20.569-16.679 37.248-37.248 37.248H245.653c-13.3 0-25.59-7.097-32.241-18.613a37.257 37.257 0 0 1 0-37.246 37.234 37.234 0 0 1 32.241-18.613z m0 201.313h249.715c20.567 0 37.235 16.659 37.235 37.226s-16.668 37.245-37.235 37.245H245.653c-20.567 0-37.235-16.679-37.235-37.245s16.669-37.226 37.235-37.226z m679.378 89.174h-72.537v-78.126c0-20.608-13.661-37.35-33.166-37.35-19.42 0-33.103 16.742-33.103 37.35v78.061h-72.6c-20.014 0.596-35.757 17.316-35.185 37.352 0 20.61 15.702 33.975 35.185 33.975h72.622v74.704c0 20.693 13.661 37.352 33.081 37.352 19.505 0 33.166-16.659 33.166-37.352v-74.704h72.537c19.483 0 35.248-13.365 35.248-33.975 0-20.693-15.68-37.352-35.248-37.352" fill="#2c2c2c" p-id="3919"></path></svg>